<svg width="75" height="332" viewBox="0 0 75 332" fill="none" xmlns="http://www.w3.org/2000/svg">
<path d="M37.0411 1C71.0411 1 72.541 28 73.541 44C74.541 60 72.541 94 68.041 111.5C63.5411 129 42.5411 154.283 37.0411 161.283C31.541 168.283 11.541 184 8.04105 209C4.54106 234 0.0410461 260 4.04105 284.5C8.04105 309 21.041 330.5 37.0411 330.5C53.0411 330.5 62.541 313 68.041 296.5C73.541 280 76.5411 224.5 68.041 201.5C59.541 178.5 16.0411 139 8.04105 118C0.0410533 97 1.04105 69 1.04105 52.5C1.04105 36 3.04106 1 37.0411 1Z" stroke="#FF0000" stroke-width="2"/>
</svg>
